<svg width="1080" height="800" viewBox="0 0 1080 800" fill="none" xmlns="http://www.w3.org/2000/svg">
<g clip-path="url(#clip0_7_7558)">
<mask id="path-3-inside-1_7_7558" fill="white">
<path d="M-36 0H36V72H-36V0Z"/>
</mask>
<path d="M36 72V72.75H36.75V72H36ZM36 0H35.25V72H36H36.75V0H36ZM36 72V71.25H-36V72V72.75H36V72Z" fill="#E9EAEB" mask="url(#path-3-inside-1_7_7558)"/>
<mask id="path-5-inside-2_7_7558" fill="white">
<path d="M36 0H108V72H36V0Z"/>
</mask>
<path d="M108 72V72.75H108.75V72H108ZM108 0H107.25V72H108H108.75V0H108ZM108 72V71.25H36V72V72.75H108V72Z" fill="#E9EAEB" mask="url(#path-5-inside-2_7_7558)"/>
<mask id="path-7-inside-3_7_7558" fill="white">
<path d="M108 0H180V72H108V0Z"/>
</mask>
<path d="M180 72V72.75H180.75V72H180ZM180 0H179.25V72H180H180.75V0H180ZM180 72V71.25H108V72V72.75H180V72Z" fill="#E9EAEB" mask="url(#path-7-inside-3_7_7558)"/>
<mask id="path-9-inside-4_7_7558" fill="white">
<path d="M180 0H252V72H180V0Z"/>
</mask>
<path d="M252 72V72.75H252.75V72H252ZM252 0H251.25V72H252H252.75V0H252ZM252 72V71.25H180V72V72.75H252V72Z" fill="#E9EAEB" mask="url(#path-9-inside-4_7_7558)"/>
<mask id="path-11-inside-5_7_7558" fill="white">
<path d="M252 0H324V72H252V0Z"/>
</mask>
<path d="M324 72V72.75H324.75V72H324ZM324 0H323.25V72H324H324.75V0H324ZM324 72V71.25H252V72V72.75H324V72Z" fill="#E9EAEB" mask="url(#path-11-inside-5_7_7558)"/>
<mask id="path-13-inside-6_7_7558" fill="white">
<path d="M324 0H396V72H324V0Z"/>
</mask>
<path d="M396 72V72.75H396.75V72H396ZM396 0H395.25V72H396H396.75V0H396ZM396 72V71.25H324V72V72.75H396V72Z" fill="#E9EAEB" mask="url(#path-13-inside-6_7_7558)"/>
<mask id="path-15-inside-7_7_7558" fill="white">
<path d="M396 0H468V72H396V0Z"/>
</mask>
<path d="M468 72V72.75H468.75V72H468ZM468 0H467.25V72H468H468.75V0H468ZM468 72V71.25H396V72V72.75H468V72Z" fill="#E9EAEB" mask="url(#path-15-inside-7_7_7558)"/>
<mask id="path-17-inside-8_7_7558" fill="white">
<path d="M468 0H540V72H468V0Z"/>
</mask>
<path d="M540 72V72.75H540.75V72H540ZM540 0H539.25V72H540H540.75V0H540ZM540 72V71.25H468V72V72.75H540V72Z" fill="#E9EAEB" mask="url(#path-17-inside-8_7_7558)"/>
<mask id="path-19-inside-9_7_7558" fill="white">
<path d="M540 0H612V72H540V0Z"/>
</mask>
<path d="M612 72V72.75H612.75V72H612ZM612 0H611.25V72H612H612.75V0H612ZM612 72V71.25H540V72V72.75H612V72Z" fill="#E9EAEB" mask="url(#path-19-inside-9_7_7558)"/>
<mask id="path-21-inside-10_7_7558" fill="white">
<path d="M612 0H684V72H612V0Z"/>
</mask>
<path d="M684 72V72.75H684.75V72H684ZM684 0H683.25V72H684H684.75V0H684ZM684 72V71.25H612V72V72.75H684V72Z" fill="#E9EAEB" mask="url(#path-21-inside-10_7_7558)"/>
<mask id="path-23-inside-11_7_7558" fill="white">
<path d="M684 0H756V72H684V0Z"/>
</mask>
<path d="M756 72V72.75H756.75V72H756ZM756 0H755.25V72H756H756.75V0H756ZM756 72V71.25H684V72V72.75H756V72Z" fill="#E9EAEB" mask="url(#path-23-inside-11_7_7558)"/>
<mask id="path-25-inside-12_7_7558" fill="white">
<path d="M756 0H828V72H756V0Z"/>
</mask>
<path d="M828 72V72.75H828.75V72H828ZM828 0H827.25V72H828H828.75V0H828ZM828 72V71.25H756V72V72.75H828V72Z" fill="#E9EAEB" mask="url(#path-25-inside-12_7_7558)"/>
<mask id="path-27-inside-13_7_7558" fill="white">
<path d="M828 0H900V72H828V0Z"/>
</mask>
<path d="M900 72V72.75H900.75V72H900ZM900 0H899.25V72H900H900.75V0H900ZM900 72V71.25H828V72V72.75H900V72Z" fill="#E9EAEB" mask="url(#path-27-inside-13_7_7558)"/>
<mask id="path-29-inside-14_7_7558" fill="white">
<path d="M900 0H972V72H900V0Z"/>
</mask>
<path d="M972 72V72.75H972.75V72H972ZM972 0H971.25V72H972H972.75V0H972ZM972 72V71.25H900V72V72.75H972V72Z" fill="#E9EAEB" mask="url(#path-29-inside-14_7_7558)"/>
<mask id="path-31-inside-15_7_7558" fill="white">
<path d="M972 0H1044V72H972V0Z"/>
</mask>
<path d="M1044 72V72.75H1044.75V72H1044ZM1044 0H1043.25V72H1044H1044.75V0H1044ZM1044 72V71.25H972V72V72.75H1044V72Z" fill="#E9EAEB" mask="url(#path-31-inside-15_7_7558)"/>
<mask id="path-33-inside-16_7_7558" fill="white">
<path d="M1044 0H1116V72H1044V0Z"/>
</mask>
<path d="M1116 72V72.75H1116.75V72H1116ZM1116 0H1115.25V72H1116H1116.75V0H1116ZM1116 72V71.25H1044V72V72.75H1116V72Z" fill="#E9EAEB" mask="url(#path-33-inside-16_7_7558)"/>
<mask id="path-35-inside-17_7_7558" fill="white">
<path d="M-36 72H36V144H-36V72Z"/>
</mask>
<path d="M36 144V144.75H36.75V144H36ZM36 72H35.25V144H36H36.75V72H36ZM36 144V143.25H-36V144V144.75H36V144Z" fill="#E9EAEB" mask="url(#path-35-inside-17_7_7558)"/>
<mask id="path-37-inside-18_7_7558" fill="white">
<path d="M36 72H108V144H36V72Z"/>
</mask>
<path d="M108 144V144.75H108.75V144H108ZM108 72H107.25V144H108H108.75V72H108ZM108 144V143.25H36V144V144.75H108V144Z" fill="#E9EAEB" mask="url(#path-37-inside-18_7_7558)"/>
<mask id="path-39-inside-19_7_7558" fill="white">
<path d="M108 72H180V144H108V72Z"/>
</mask>
<path d="M180 144V144.75H180.75V144H180ZM180 72H179.25V144H180H180.75V72H180ZM180 144V143.25H108V144V144.75H180V144Z" fill="#E9EAEB" mask="url(#path-39-inside-19_7_7558)"/>
<mask id="path-41-inside-20_7_7558" fill="white">
<path d="M180 72H252V144H180V72Z"/>
</mask>
<path d="M180 72H252V144H180V72Z" fill="#F5F5F5"/>
<path d="M252 144V144.75H252.75V144H252ZM252 72H251.25V144H252H252.75V72H252ZM252 144V143.25H180V144V144.75H252V144Z" fill="#E9EAEB" mask="url(#path-41-inside-20_7_7558)"/>
<mask id="path-43-inside-21_7_7558" fill="white">
<path d="M252 72H324V144H252V72Z"/>
</mask>
<path d="M324 144V144.75H324.75V144H324ZM324 72H323.25V144H324H324.75V72H324ZM324 144V143.25H252V144V144.75H324V144Z" fill="#E9EAEB" mask="url(#path-43-inside-21_7_7558)"/>
<mask id="path-45-inside-22_7_7558" fill="white">
<path d="M324 72H396V144H324V72Z"/>
</mask>
<path d="M396 144V144.75H396.75V144H396ZM396 72H395.25V144H396H396.75V72H396ZM396 144V143.25H324V144V144.75H396V144Z" fill="#E9EAEB" mask="url(#path-45-inside-22_7_7558)"/>
<mask id="path-47-inside-23_7_7558" fill="white">
<path d="M396 72H468V144H396V72Z"/>
</mask>
<path d="M468 144V144.75H468.75V144H468ZM468 72H467.25V144H468H468.75V72H468ZM468 144V143.25H396V144V144.75H468V144Z" fill="#E9EAEB" mask="url(#path-47-inside-23_7_7558)"/>
<mask id="path-49-inside-24_7_7558" fill="white">
<path d="M468 72H540V144H468V72Z"/>
</mask>
<path d="M540 144V144.75H540.75V144H540ZM540 72H539.25V144H540H540.75V72H540ZM540 144V143.25H468V144V144.75H540V144Z" fill="#E9EAEB" mask="url(#path-49-inside-24_7_7558)"/>
<mask id="path-51-inside-25_7_7558" fill="white">
<path d="M540 72H612V144H540V72Z"/>
</mask>
<path d="M612 144V144.75H612.75V144H612ZM612 72H611.25V144H612H612.75V72H612ZM612 144V143.25H540V144V144.75H612V144Z" fill="#E9EAEB" mask="url(#path-51-inside-25_7_7558)"/>
<mask id="path-53-inside-26_7_7558" fill="white">
<path d="M612 72H684V144H612V72Z"/>
</mask>
<path d="M684 144V144.75H684.75V144H684ZM684 72H683.25V144H684H684.75V72H684ZM684 144V143.25H612V144V144.75H684V144Z" fill="#E9EAEB" mask="url(#path-53-inside-26_7_7558)"/>
<mask id="path-55-inside-27_7_7558" fill="white">
<path d="M684 72H756V144H684V72Z"/>
</mask>
<path d="M756 144V144.75H756.75V144H756ZM756 72H755.25V144H756H756.75V72H756ZM756 144V143.25H684V144V144.75H756V144Z" fill="#E9EAEB" mask="url(#path-55-inside-27_7_7558)"/>
<mask id="path-57-inside-28_7_7558" fill="white">
<path d="M756 72H828V144H756V72Z"/>
</mask>
<path d="M828 144V144.75H828.75V144H828ZM828 72H827.25V144H828H828.75V72H828ZM828 144V143.25H756V144V144.75H828V144Z" fill="#E9EAEB" mask="url(#path-57-inside-28_7_7558)"/>
<mask id="path-59-inside-29_7_7558" fill="white">
<path d="M828 72H900V144H828V72Z"/>
</mask>
<path d="M828 72H900V144H828V72Z" fill="#F5F5F5"/>
<path d="M900 144V144.75H900.75V144H900ZM900 72H899.25V144H900H900.75V72H900ZM900 144V143.25H828V144V144.75H900V144Z" fill="#E9EAEB" mask="url(#path-59-inside-29_7_7558)"/>
<mask id="path-61-inside-30_7_7558" fill="white">
<path d="M900 72H972V144H900V72Z"/>
</mask>
<path d="M972 144V144.75H972.75V144H972ZM972 72H971.25V144H972H972.75V72H972ZM972 144V143.25H900V144V144.75H972V144Z" fill="#E9EAEB" mask="url(#path-61-inside-30_7_7558)"/>
<mask id="path-63-inside-31_7_7558" fill="white">
<path d="M972 72H1044V144H972V72Z"/>
</mask>
<path d="M1044 144V144.75H1044.75V144H1044ZM1044 72H1043.25V144H1044H1044.75V72H1044ZM1044 144V143.25H972V144V144.75H1044V144Z" fill="#E9EAEB" mask="url(#path-63-inside-31_7_7558)"/>
<mask id="path-65-inside-32_7_7558" fill="white">
<path d="M1044 72H1116V144H1044V72Z"/>
</mask>
<path d="M1116 144V144.75H1116.75V144H1116ZM1116 72H1115.25V144H1116H1116.75V72H1116ZM1116 144V143.25H1044V144V144.75H1116V144Z" fill="#E9EAEB" mask="url(#path-65-inside-32_7_7558)"/>
<mask id="path-67-inside-33_7_7558" fill="white">
<path d="M-36 144H36V216H-36V144Z"/>
</mask>
<path d="M36 216V216.75H36.75V216H36ZM36 144H35.25V216H36H36.75V144H36ZM36 216V215.25H-36V216V216.75H36V216Z" fill="#E9EAEB" mask="url(#path-67-inside-33_7_7558)"/>
<mask id="path-69-inside-34_7_7558" fill="white">
<path d="M36 144H108V216H36V144Z"/>
</mask>
<path d="M108 216V216.75H108.75V216H108ZM108 144H107.25V216H108H108.75V144H108ZM108 216V215.25H36V216V216.75H108V216Z" fill="#E9EAEB" mask="url(#path-69-inside-34_7_7558)"/>
<mask id="path-71-inside-35_7_7558" fill="white">
<path d="M108 144H180V216H108V144Z"/>
</mask>
<path d="M180 216V216.75H180.75V216H180ZM180 144H179.25V216H180H180.75V144H180ZM180 216V215.25H108V216V216.75H180V216Z" fill="#E9EAEB" mask="url(#path-71-inside-35_7_7558)"/>
<mask id="path-73-inside-36_7_7558" fill="white">
<path d="M180 144H252V216H180V144Z"/>
</mask>
<path d="M252 216V216.75H252.75V216H252ZM252 144H251.25V216H252H252.75V144H252ZM252 216V215.25H180V216V216.75H252V216Z" fill="#E9EAEB" mask="url(#path-73-inside-36_7_7558)"/>
<mask id="path-75-inside-37_7_7558" fill="white">
<path d="M252 144H324V216H252V144Z"/>
</mask>
<path d="M324 216V216.75H324.75V216H324ZM324 144H323.25V216H324H324.75V144H324ZM324 216V215.25H252V216V216.75H324V216Z" fill="#E9EAEB" mask="url(#path-75-inside-37_7_7558)"/>
<mask id="path-77-inside-38_7_7558" fill="white">
<path d="M324 144H396V216H324V144Z"/>
</mask>
<path d="M324 144H396V216H324V144Z" fill="#F5F5F5"/>
<path d="M396 216V216.75H396.75V216H396ZM396 144H395.25V216H396H396.75V144H396ZM396 216V215.25H324V216V216.75H396V216Z" fill="#E9EAEB" mask="url(#path-77-inside-38_7_7558)"/>
<mask id="path-79-inside-39_7_7558" fill="white">
<path d="M396 144H468V216H396V144Z"/>
</mask>
<path d="M468 216V216.75H468.75V216H468ZM468 144H467.25V216H468H468.75V144H468ZM468 216V215.25H396V216V216.75H468V216Z" fill="#E9EAEB" mask="url(#path-79-inside-39_7_7558)"/>
<mask id="path-81-inside-40_7_7558" fill="white">
<path d="M468 144H540V216H468V144Z"/>
</mask>
<path d="M540 216V216.75H540.75V216H540ZM540 144H539.25V216H540H540.75V144H540ZM540 216V215.25H468V216V216.75H540V216Z" fill="#E9EAEB" mask="url(#path-81-inside-40_7_7558)"/>
<mask id="path-83-inside-41_7_7558" fill="white">
<path d="M540 144H612V216H540V144Z"/>
</mask>
<path d="M612 216V216.75H612.75V216H612ZM612 144H611.25V216H612H612.75V144H612ZM612 216V215.25H540V216V216.75H612V216Z" fill="#E9EAEB" mask="url(#path-83-inside-41_7_7558)"/>
<mask id="path-85-inside-42_7_7558" fill="white">
<path d="M612 144H684V216H612V144Z"/>
</mask>
<path d="M612 144H684V216H612V144Z" fill="#F5F5F5"/>
<path d="M684 216V216.75H684.75V216H684ZM684 144H683.25V216H684H684.75V144H684ZM684 216V215.25H612V216V216.75H684V216Z" fill="#E9EAEB" mask="url(#path-85-inside-42_7_7558)"/>
<mask id="path-87-inside-43_7_7558" fill="white">
<path d="M684 144H756V216H684V144Z"/>
</mask>
<path d="M756 216V216.75H756.75V216H756ZM756 144H755.25V216H756H756.75V144H756ZM756 216V215.25H684V216V216.75H756V216Z" fill="#E9EAEB" mask="url(#path-87-inside-43_7_7558)"/>
<mask id="path-89-inside-44_7_7558" fill="white">
<path d="M756 144H828V216H756V144Z"/>
</mask>
<path d="M828 216V216.75H828.75V216H828ZM828 144H827.25V216H828H828.75V144H828ZM828 216V215.25H756V216V216.75H828V216Z" fill="#E9EAEB" mask="url(#path-89-inside-44_7_7558)"/>
<mask id="path-91-inside-45_7_7558" fill="white">
<path d="M828 144H900V216H828V144Z"/>
</mask>
<path d="M900 216V216.75H900.75V216H900ZM900 144H899.25V216H900H900.75V144H900ZM900 216V215.25H828V216V216.75H900V216Z" fill="#E9EAEB" mask="url(#path-91-inside-45_7_7558)"/>
<mask id="path-93-inside-46_7_7558" fill="white">
<path d="M900 144H972V216H900V144Z"/>
</mask>
<path d="M972 216V216.75H972.75V216H972ZM972 144H971.25V216H972H972.75V144H972ZM972 216V215.25H900V216V216.75H972V216Z" fill="#E9EAEB" mask="url(#path-93-inside-46_7_7558)"/>
<mask id="path-95-inside-47_7_7558" fill="white">
<path d="M972 144H1044V216H972V144Z"/>
</mask>
<path d="M1044 216V216.75H1044.75V216H1044ZM1044 144H1043.25V216H1044H1044.75V144H1044ZM1044 216V215.25H972V216V216.75H1044V216Z" fill="#E9EAEB" mask="url(#path-95-inside-47_7_7558)"/>
<mask id="path-97-inside-48_7_7558" fill="white">
<path d="M1044 144H1116V216H1044V144Z"/>
</mask>
<path d="M1116 216V216.75H1116.75V216H1116ZM1116 144H1115.25V216H1116H1116.75V144H1116ZM1116 216V215.25H1044V216V216.75H1116V216Z" fill="#E9EAEB" mask="url(#path-97-inside-48_7_7558)"/>
<mask id="path-99-inside-49_7_7558" fill="white">
<path d="M-36 216H36V288H-36V216Z"/>
</mask>
<path d="M-36 216H36V288H-36V216Z" fill="#F5F5F5"/>
<path d="M36 288V288.75H36.75V288H36ZM36 216H35.25V288H36H36.75V216H36ZM36 288V287.25H-36V288V288.75H36V288Z" fill="#E9EAEB" mask="url(#path-99-inside-49_7_7558)"/>
<mask id="path-101-inside-50_7_7558" fill="white">
<path d="M36 216H108V288H36V216Z"/>
</mask>
<path d="M108 288V288.75H108.75V288H108ZM108 216H107.25V288H108H108.75V216H108ZM108 288V287.25H36V288V288.75H108V288Z" fill="#E9EAEB" mask="url(#path-101-inside-50_7_7558)"/>
<mask id="path-103-inside-51_7_7558" fill="white">
<path d="M108 216H180V288H108V216Z"/>
</mask>
<path d="M180 288V288.75H180.75V288H180ZM180 216H179.25V288H180H180.75V216H180ZM180 288V287.25H108V288V288.75H180V288Z" fill="#E9EAEB" mask="url(#path-103-inside-51_7_7558)"/>
<mask id="path-105-inside-52_7_7558" fill="white">
<path d="M180 216H252V288H180V216Z"/>
</mask>
<path d="M252 288V288.75H252.75V288H252ZM252 216H251.25V288H252H252.75V216H252ZM252 288V287.25H180V288V288.75H252V288Z" fill="#E9EAEB" mask="url(#path-105-inside-52_7_7558)"/>
<mask id="path-107-inside-53_7_7558" fill="white">
<path d="M252 216H324V288H252V216Z"/>
</mask>
<path d="M324 288V288.75H324.75V288H324ZM324 216H323.25V288H324H324.75V216H324ZM324 288V287.25H252V288V288.75H324V288Z" fill="#E9EAEB" mask="url(#path-107-inside-53_7_7558)"/>
<mask id="path-109-inside-54_7_7558" fill="white">
<path d="M324 216H396V288H324V216Z"/>
</mask>
<path d="M396 288V288.75H396.75V288H396ZM396 216H395.25V288H396H396.75V216H396ZM396 288V287.25H324V288V288.75H396V288Z" fill="#E9EAEB" mask="url(#path-109-inside-54_7_7558)"/>
<mask id="path-111-inside-55_7_7558" fill="white">
<path d="M396 216H468V288H396V216Z"/>
</mask>
<path d="M468 288V288.75H468.75V288H468ZM468 216H467.25V288H468H468.75V216H468ZM468 288V287.25H396V288V288.75H468V288Z" fill="#E9EAEB" mask="url(#path-111-inside-55_7_7558)"/>
<mask id="path-113-inside-56_7_7558" fill="white">
<path d="M468 216H540V288H468V216Z"/>
</mask>
<path d="M540 288V288.75H540.75V288H540ZM540 216H539.25V288H540H540.75V216H540ZM540 288V287.25H468V288V288.75H540V288Z" fill="#E9EAEB" mask="url(#path-113-inside-56_7_7558)"/>
<mask id="path-115-inside-57_7_7558" fill="white">
<path d="M540 216H612V288H540V216Z"/>
</mask>
<path d="M612 288V288.75H612.75V288H612ZM612 216H611.25V288H612H612.75V216H612ZM612 288V287.25H540V288V288.75H612V288Z" fill="#E9EAEB" mask="url(#path-115-inside-57_7_7558)"/>
<mask id="path-117-inside-58_7_7558" fill="white">
<path d="M612 216H684V288H612V216Z"/>
</mask>
<path d="M684 288V288.75H684.75V288H684ZM684 216H683.25V288H684H684.75V216H684ZM684 288V287.25H612V288V288.75H684V288Z" fill="#E9EAEB" mask="url(#path-117-inside-58_7_7558)"/>
<mask id="path-119-inside-59_7_7558" fill="white">
<path d="M684 216H756V288H684V216Z"/>
</mask>
<path d="M756 288V288.75H756.75V288H756ZM756 216H755.25V288H756H756.75V216H756ZM756 288V287.25H684V288V288.75H756V288Z" fill="#E9EAEB" mask="url(#path-119-inside-59_7_7558)"/>
<mask id="path-121-inside-60_7_7558" fill="white">
<path d="M756 216H828V288H756V216Z"/>
</mask>
<path d="M828 288V288.75H828.75V288H828ZM828 216H827.25V288H828H828.75V216H828ZM828 288V287.25H756V288V288.75H828V288Z" fill="#E9EAEB" mask="url(#path-121-inside-60_7_7558)"/>
<mask id="path-123-inside-61_7_7558" fill="white">
<path d="M828 216H900V288H828V216Z"/>
</mask>
<path d="M828 216H900V288H828V216Z" fill="#F5F5F5"/>
<path d="M900 288V288.75H900.75V288H900ZM900 216H899.25V288H900H900.75V216H900ZM900 288V287.25H828V288V288.75H900V288Z" fill="#E9EAEB" mask="url(#path-123-inside-61_7_7558)"/>
<mask id="path-125-inside-62_7_7558" fill="white">
<path d="M900 216H972V288H900V216Z"/>
</mask>
<path d="M972 288V288.75H972.75V288H972ZM972 216H971.25V288H972H972.75V216H972ZM972 288V287.25H900V288V288.75H972V288Z" fill="#E9EAEB" mask="url(#path-125-inside-62_7_7558)"/>
<mask id="path-127-inside-63_7_7558" fill="white">
<path d="M972 216H1044V288H972V216Z"/>
</mask>
<path d="M1044 288V288.75H1044.75V288H1044ZM1044 216H1043.25V288H1044H1044.75V216H1044ZM1044 288V287.25H972V288V288.75H1044V288Z" fill="#E9EAEB" mask="url(#path-127-inside-63_7_7558)"/>
<mask id="path-129-inside-64_7_7558" fill="white">
<path d="M1044 216H1116V288H1044V216Z"/>
</mask>
<path d="M1116 288V288.75H1116.75V288H1116ZM1116 216H1115.25V288H1116H1116.75V216H1116ZM1116 288V287.25H1044V288V288.75H1116V288Z" fill="#E9EAEB" mask="url(#path-129-inside-64_7_7558)"/>
<mask id="path-131-inside-65_7_7558" fill="white">
<path d="M-36 288H36V360H-36V288Z"/>
</mask>
<path d="M36 360V360.75H36.75V360H36ZM36 288H35.25V360H36H36.75V288H36ZM36 360V359.25H-36V360V360.75H36V360Z" fill="#E9EAEB" mask="url(#path-131-inside-65_7_7558)"/>
<mask id="path-133-inside-66_7_7558" fill="white">
<path d="M36 288H108V360H36V288Z"/>
</mask>
<path d="M108 360V360.75H108.75V360H108ZM108 288H107.25V360H108H108.75V288H108ZM108 360V359.25H36V360V360.75H108V360Z" fill="#E9EAEB" mask="url(#path-133-inside-66_7_7558)"/>
<mask id="path-135-inside-67_7_7558" fill="white">
<path d="M108 288H180V360H108V288Z"/>
</mask>
<path d="M180 360V360.75H180.75V360H180ZM180 288H179.25V360H180H180.75V288H180ZM180 360V359.25H108V360V360.75H180V360Z" fill="#E9EAEB" mask="url(#path-135-inside-67_7_7558)"/>
<mask id="path-137-inside-68_7_7558" fill="white">
<path d="M180 288H252V360H180V288Z"/>
</mask>
<path d="M252 360V360.75H252.75V360H252ZM252 288H251.25V360H252H252.75V288H252ZM252 360V359.25H180V360V360.75H252V360Z" fill="#E9EAEB" mask="url(#path-137-inside-68_7_7558)"/>
<mask id="path-139-inside-69_7_7558" fill="white">
<path d="M252 288H324V360H252V288Z"/>
</mask>
<path d="M324 360V360.75H324.75V360H324ZM324 288H323.25V360H324H324.75V288H324ZM324 360V359.25H252V360V360.75H324V360Z" fill="#E9EAEB" mask="url(#path-139-inside-69_7_7558)"/>
<mask id="path-141-inside-70_7_7558" fill="white">
<path d="M324 288H396V360H324V288Z"/>
</mask>
<path d="M396 360V360.75H396.75V360H396ZM396 288H395.25V360H396H396.75V288H396ZM396 360V359.25H324V360V360.75H396V360Z" fill="#E9EAEB" mask="url(#path-141-inside-70_7_7558)"/>
<mask id="path-143-inside-71_7_7558" fill="white">
<path d="M396 288H468V360H396V288Z"/>
</mask>
<path d="M396 288H468V360H396V288Z" fill="#F5F5F5"/>
<path d="M468 360V360.75H468.75V360H468ZM468 288H467.25V360H468H468.75V288H468ZM468 360V359.25H396V360V360.75H468V360Z" fill="#E9EAEB" mask="url(#path-143-inside-71_7_7558)"/>
<mask id="path-145-inside-72_7_7558" fill="white">
<path d="M468 288H540V360H468V288Z"/>
</mask>
<path d="M540 360V360.75H540.75V360H540ZM540 288H539.25V360H540H540.75V288H540ZM540 360V359.25H468V360V360.75H540V360Z" fill="#E9EAEB" mask="url(#path-145-inside-72_7_7558)"/>
<mask id="path-147-inside-73_7_7558" fill="white">
<path d="M540 288H612V360H540V288Z"/>
</mask>
<path d="M612 360V360.75H612.75V360H612ZM612 288H611.25V360H612H612.75V288H612ZM612 360V359.25H540V360V360.75H612V360Z" fill="#E9EAEB" mask="url(#path-147-inside-73_7_7558)"/>
<mask id="path-149-inside-74_7_7558" fill="white">
<path d="M612 288H684V360H612V288Z"/>
</mask>
<path d="M684 360V360.75H684.75V360H684ZM684 288H683.25V360H684H684.75V288H684ZM684 360V359.25H612V360V360.75H684V360Z" fill="#E9EAEB" mask="url(#path-149-inside-74_7_7558)"/>
<mask id="path-151-inside-75_7_7558" fill="white">
<path d="M684 288H756V360H684V288Z"/>
</mask>
<path d="M756 360V360.75H756.75V360H756ZM756 288H755.25V360H756H756.75V288H756ZM756 360V359.25H684V360V360.75H756V360Z" fill="#E9EAEB" mask="url(#path-151-inside-75_7_7558)"/>
<mask id="path-153-inside-76_7_7558" fill="white">
<path d="M756 288H828V360H756V288Z"/>
</mask>
<path d="M828 360V360.75H828.75V360H828ZM828 288H827.25V360H828H828.75V288H828ZM828 360V359.25H756V360V360.75H828V360Z" fill="#E9EAEB" mask="url(#path-153-inside-76_7_7558)"/>
<mask id="path-155-inside-77_7_7558" fill="white">
<path d="M828 288H900V360H828V288Z"/>
</mask>
<path d="M900 360V360.75H900.75V360H900ZM900 288H899.25V360H900H900.75V288H900ZM900 360V359.25H828V360V360.75H900V360Z" fill="#E9EAEB" mask="url(#path-155-inside-77_7_7558)"/>
<mask id="path-157-inside-78_7_7558" fill="white">
<path d="M900 288H972V360H900V288Z"/>
</mask>
<path d="M972 360V360.75H972.75V360H972ZM972 288H971.25V360H972H972.75V288H972ZM972 360V359.25H900V360V360.75H972V360Z" fill="#E9EAEB" mask="url(#path-157-inside-78_7_7558)"/>
<mask id="path-159-inside-79_7_7558" fill="white">
<path d="M972 288H1044V360H972V288Z"/>
</mask>
<path d="M1044 360V360.75H1044.75V360H1044ZM1044 288H1043.25V360H1044H1044.75V288H1044ZM1044 360V359.25H972V360V360.75H1044V360Z" fill="#E9EAEB" mask="url(#path-159-inside-79_7_7558)"/>
<mask id="path-161-inside-80_7_7558" fill="white">
<path d="M1044 288H1116V360H1044V288Z"/>
</mask>
<path d="M1116 360V360.75H1116.75V360H1116ZM1116 288H1115.25V360H1116H1116.75V288H1116ZM1116 360V359.25H1044V360V360.75H1116V360Z" fill="#E9EAEB" mask="url(#path-161-inside-80_7_7558)"/>
<mask id="path-163-inside-81_7_7558" fill="white">
<path d="M-36 360H36V432H-36V360Z"/>
</mask>
<path d="M36 432V432.75H36.75V432H36ZM36 360H35.25V432H36H36.75V360H36ZM36 432V431.25H-36V432V432.75H36V432Z" fill="#E9EAEB" mask="url(#path-163-inside-81_7_7558)"/>
<mask id="path-165-inside-82_7_7558" fill="white">
<path d="M36 360H108V432H36V360Z"/>
</mask>
<path d="M108 432V432.75H108.75V432H108ZM108 360H107.25V432H108H108.75V360H108ZM108 432V431.25H36V432V432.75H108V432Z" fill="#E9EAEB" mask="url(#path-165-inside-82_7_7558)"/>
<mask id="path-167-inside-83_7_7558" fill="white">
<path d="M108 360H180V432H108V360Z"/>
</mask>
<path d="M180 432V432.75H180.75V432H180ZM180 360H179.25V432H180H180.75V360H180ZM180 432V431.25H108V432V432.75H180V432Z" fill="#E9EAEB" mask="url(#path-167-inside-83_7_7558)"/>
<mask id="path-169-inside-84_7_7558" fill="white">
<path d="M180 360H252V432H180V360Z"/>
</mask>
<path d="M180 360H252V432H180V360Z" fill="#F5F5F5"/>
<path d="M252 432V432.75H252.75V432H252ZM252 360H251.25V432H252H252.75V360H252ZM252 432V431.25H180V432V432.75H252V432Z" fill="#E9EAEB" mask="url(#path-169-inside-84_7_7558)"/>
<mask id="path-171-inside-85_7_7558" fill="white">
<path d="M252 360H324V432H252V360Z"/>
</mask>
<path d="M324 432V432.75H324.75V432H324ZM324 360H323.25V432H324H324.75V360H324ZM324 432V431.25H252V432V432.75H324V432Z" fill="#E9EAEB" mask="url(#path-171-inside-85_7_7558)"/>
<mask id="path-173-inside-86_7_7558" fill="white">
<path d="M324 360H396V432H324V360Z"/>
</mask>
<path d="M396 432V432.75H396.75V432H396ZM396 360H395.25V432H396H396.75V360H396ZM396 432V431.25H324V432V432.75H396V432Z" fill="#E9EAEB" mask="url(#path-173-inside-86_7_7558)"/>
<mask id="path-175-inside-87_7_7558" fill="white">
<path d="M396 360H468V432H396V360Z"/>
</mask>
<path d="M468 432V432.75H468.75V432H468ZM468 360H467.25V432H468H468.75V360H468ZM468 432V431.25H396V432V432.75H468V432Z" fill="#E9EAEB" mask="url(#path-175-inside-87_7_7558)"/>
<mask id="path-177-inside-88_7_7558" fill="white">
<path d="M468 360H540V432H468V360Z"/>
</mask>
<path d="M540 432V432.75H540.75V432H540ZM540 360H539.25V432H540H540.75V360H540ZM540 432V431.25H468V432V432.75H540V432Z" fill="#E9EAEB" mask="url(#path-177-inside-88_7_7558)"/>
<mask id="path-179-inside-89_7_7558" fill="white">
<path d="M540 360H612V432H540V360Z"/>
</mask>
<path d="M612 432V432.75H612.75V432H612ZM612 360H611.25V432H612H612.75V360H612ZM612 432V431.25H540V432V432.75H612V432Z" fill="#E9EAEB" mask="url(#path-179-inside-89_7_7558)"/>
<mask id="path-181-inside-90_7_7558" fill="white">
<path d="M612 360H684V432H612V360Z"/>
</mask>
<path d="M612 360H684V432H612V360Z" fill="#F5F5F5"/>
<path d="M684 432V432.75H684.75V432H684ZM684 360H683.25V432H684H684.75V360H684ZM684 432V431.25H612V432V432.75H684V432Z" fill="#E9EAEB" mask="url(#path-181-inside-90_7_7558)"/>
<mask id="path-183-inside-91_7_7558" fill="white">
<path d="M684 360H756V432H684V360Z"/>
</mask>
<path d="M756 432V432.75H756.75V432H756ZM756 360H755.25V432H756H756.75V360H756ZM756 432V431.25H684V432V432.75H756V432Z" fill="#E9EAEB" mask="url(#path-183-inside-91_7_7558)"/>
<mask id="path-185-inside-92_7_7558" fill="white">
<path d="M756 360H828V432H756V360Z"/>
</mask>
<path d="M828 432V432.75H828.75V432H828ZM828 360H827.25V432H828H828.75V360H828ZM828 432V431.25H756V432V432.75H828V432Z" fill="#E9EAEB" mask="url(#path-185-inside-92_7_7558)"/>
<mask id="path-187-inside-93_7_7558" fill="white">
<path d="M828 360H900V432H828V360Z"/>
</mask>
<path d="M900 432V432.75H900.75V432H900ZM900 360H899.25V432H900H900.75V360H900ZM900 432V431.25H828V432V432.75H900V432Z" fill="#E9EAEB" mask="url(#path-187-inside-93_7_7558)"/>
<mask id="path-189-inside-94_7_7558" fill="white">
<path d="M900 360H972V432H900V360Z"/>
</mask>
<path d="M972 432V432.75H972.75V432H972ZM972 360H971.25V432H972H972.75V360H972ZM972 432V431.25H900V432V432.75H972V432Z" fill="#E9EAEB" mask="url(#path-189-inside-94_7_7558)"/>
<mask id="path-191-inside-95_7_7558" fill="white">
<path d="M972 360H1044V432H972V360Z"/>
</mask>
<path d="M1044 432V432.75H1044.75V432H1044ZM1044 360H1043.25V432H1044H1044.75V360H1044ZM1044 432V431.25H972V432V432.75H1044V432Z" fill="#E9EAEB" mask="url(#path-191-inside-95_7_7558)"/>
<mask id="path-193-inside-96_7_7558" fill="white">
<path d="M1044 360H1116V432H1044V360Z"/>
</mask>
<path d="M1116 432V432.75H1116.75V432H1116ZM1116 360H1115.25V432H1116H1116.75V360H1116ZM1116 432V431.25H1044V432V432.75H1116V432Z" fill="#E9EAEB" mask="url(#path-193-inside-96_7_7558)"/>
<mask id="path-195-inside-97_7_7558" fill="white">
<path d="M-36 432H36V504H-36V432Z"/>
</mask>
<path d="M36 504V504.75H36.75V504H36ZM36 432H35.25V504H36H36.75V432H36ZM36 504V503.25H-36V504V504.75H36V504Z" fill="#E9EAEB" mask="url(#path-195-inside-97_7_7558)"/>
<mask id="path-197-inside-98_7_7558" fill="white">
<path d="M36 432H108V504H36V432Z"/>
</mask>
<path d="M36 432H108V504H36V432Z" fill="#F5F5F5"/>
<path d="M108 504V504.75H108.75V504H108ZM108 432H107.25V504H108H108.75V432H108ZM108 504V503.25H36V504V504.75H108V504Z" fill="#E9EAEB" mask="url(#path-197-inside-98_7_7558)"/>
<mask id="path-199-inside-99_7_7558" fill="white">
<path d="M108 432H180V504H108V432Z"/>
</mask>
<path d="M180 504V504.75H180.75V504H180ZM180 432H179.25V504H180H180.75V432H180ZM180 504V503.25H108V504V504.75H180V504Z" fill="#E9EAEB" mask="url(#path-199-inside-99_7_7558)"/>
<mask id="path-201-inside-100_7_7558" fill="white">
<path d="M180 432H252V504H180V432Z"/>
</mask>
<path d="M252 504V504.75H252.75V504H252ZM252 432H251.25V504H252H252.75V432H252ZM252 504V503.25H180V504V504.75H252V504Z" fill="#E9EAEB" mask="url(#path-201-inside-100_7_7558)"/>
<mask id="path-203-inside-101_7_7558" fill="white">
<path d="M252 432H324V504H252V432Z"/>
</mask>
<path d="M324 504V504.75H324.75V504H324ZM324 432H323.25V504H324H324.75V432H324ZM324 504V503.25H252V504V504.75H324V504Z" fill="#E9EAEB" mask="url(#path-203-inside-101_7_7558)"/>
<mask id="path-205-inside-102_7_7558" fill="white">
<path d="M324 432H396V504H324V432Z"/>
</mask>
<path d="M396 504V504.75H396.75V504H396ZM396 432H395.25V504H396H396.75V432H396ZM396 504V503.25H324V504V504.75H396V504Z" fill="#E9EAEB" mask="url(#path-205-inside-102_7_7558)"/>
<mask id="path-207-inside-103_7_7558" fill="white">
<path d="M396 432H468V504H396V432Z"/>
</mask>
<path d="M468 504V504.75H468.75V504H468ZM468 432H467.25V504H468H468.75V432H468ZM468 504V503.25H396V504V504.75H468V504Z" fill="#E9EAEB" mask="url(#path-207-inside-103_7_7558)"/>
<mask id="path-209-inside-104_7_7558" fill="white">
<path d="M468 432H540V504H468V432Z"/>
</mask>
<path d="M540 504V504.75H540.75V504H540ZM540 432H539.25V504H540H540.75V432H540ZM540 504V503.25H468V504V504.75H540V504Z" fill="#E9EAEB" mask="url(#path-209-inside-104_7_7558)"/>
<mask id="path-211-inside-105_7_7558" fill="white">
<path d="M540 432H612V504H540V432Z"/>
</mask>
<path d="M612 504V504.75H612.75V504H612ZM612 432H611.25V504H612H612.75V432H612ZM612 504V503.25H540V504V504.75H612V504Z" fill="#E9EAEB" mask="url(#path-211-inside-105_7_7558)"/>
<mask id="path-213-inside-106_7_7558" fill="white">
<path d="M612 432H684V504H612V432Z"/>
</mask>
<path d="M684 504V504.75H684.75V504H684ZM684 432H683.25V504H684H684.75V432H684ZM684 504V503.25H612V504V504.75H684V504Z" fill="#E9EAEB" mask="url(#path-213-inside-106_7_7558)"/>
<mask id="path-215-inside-107_7_7558" fill="white">
<path d="M684 432H756V504H684V432Z"/>
</mask>
<path d="M756 504V504.75H756.75V504H756ZM756 432H755.25V504H756H756.75V432H756ZM756 504V503.25H684V504V504.75H756V504Z" fill="#E9EAEB" mask="url(#path-215-inside-107_7_7558)"/>
<mask id="path-217-inside-108_7_7558" fill="white">
<path d="M756 432H828V504H756V432Z"/>
</mask>
<path d="M828 504V504.75H828.75V504H828ZM828 432H827.25V504H828H828.75V432H828ZM828 504V503.25H756V504V504.75H828V504Z" fill="#E9EAEB" mask="url(#path-217-inside-108_7_7558)"/>
<mask id="path-219-inside-109_7_7558" fill="white">
<path d="M828 432H900V504H828V432Z"/>
</mask>
<path d="M900 504V504.75H900.75V504H900ZM900 432H899.25V504H900H900.75V432H900ZM900 504V503.25H828V504V504.75H900V504Z" fill="#E9EAEB" mask="url(#path-219-inside-109_7_7558)"/>
<mask id="path-221-inside-110_7_7558" fill="white">
<path d="M900 432H972V504H900V432Z"/>
</mask>
<path d="M972 504V504.75H972.75V504H972ZM972 432H971.25V504H972H972.75V432H972ZM972 504V503.25H900V504V504.75H972V504Z" fill="#E9EAEB" mask="url(#path-221-inside-110_7_7558)"/>
<mask id="path-223-inside-111_7_7558" fill="white">
<path d="M972 432H1044V504H972V432Z"/>
</mask>
<path d="M972 432H1044V504H972V432Z" fill="#F5F5F5"/>
<path d="M1044 504V504.75H1044.75V504H1044ZM1044 432H1043.25V504H1044H1044.75V432H1044ZM1044 504V503.25H972V504V504.75H1044V504Z" fill="#E9EAEB" mask="url(#path-223-inside-111_7_7558)"/>
<mask id="path-225-inside-112_7_7558" fill="white">
<path d="M1044 432H1116V504H1044V432Z"/>
</mask>
<path d="M1116 504V504.75H1116.75V504H1116ZM1116 432H1115.25V504H1116H1116.75V432H1116ZM1116 504V503.25H1044V504V504.75H1116V504Z" fill="#E9EAEB" mask="url(#path-225-inside-112_7_7558)"/>
<mask id="path-227-inside-113_7_7558" fill="white">
<path d="M-36 504H36V576H-36V504Z"/>
</mask>
<path d="M36 576V576.75H36.75V576H36ZM36 504H35.25V576H36H36.75V504H36ZM36 576V575.25H-36V576V576.75H36V576Z" fill="#E9EAEB" mask="url(#path-227-inside-113_7_7558)"/>
<mask id="path-229-inside-114_7_7558" fill="white">
<path d="M36 504H108V576H36V504Z"/>
</mask>
<path d="M108 576V576.75H108.75V576H108ZM108 504H107.25V576H108H108.75V504H108ZM108 576V575.25H36V576V576.75H108V576Z" fill="#E9EAEB" mask="url(#path-229-inside-114_7_7558)"/>
<mask id="path-231-inside-115_7_7558" fill="white">
<path d="M108 504H180V576H108V504Z"/>
</mask>
<path d="M180 576V576.75H180.75V576H180ZM180 504H179.25V576H180H180.75V504H180ZM180 576V575.25H108V576V576.75H180V576Z" fill="#E9EAEB" mask="url(#path-231-inside-115_7_7558)"/>
<mask id="path-233-inside-116_7_7558" fill="white">
<path d="M180 504H252V576H180V504Z"/>
</mask>
<path d="M252 576V576.75H252.75V576H252ZM252 504H251.25V576H252H252.75V504H252ZM252 576V575.25H180V576V576.75H252V576Z" fill="#E9EAEB" mask="url(#path-233-inside-116_7_7558)"/>
<mask id="path-235-inside-117_7_7558" fill="white">
<path d="M252 504H324V576H252V504Z"/>
</mask>
<path d="M324 576V576.75H324.75V576H324ZM324 504H323.25V576H324H324.75V504H324ZM324 576V575.25H252V576V576.75H324V576Z" fill="#E9EAEB" mask="url(#path-235-inside-117_7_7558)"/>
<mask id="path-237-inside-118_7_7558" fill="white">
<path d="M324 504H396V576H324V504Z"/>
</mask>
<path d="M396 576V576.75H396.75V576H396ZM396 504H395.25V576H396H396.75V504H396ZM396 576V575.25H324V576V576.75H396V576Z" fill="#E9EAEB" mask="url(#path-237-inside-118_7_7558)"/>
<mask id="path-239-inside-119_7_7558" fill="white">
<path d="M396 504H468V576H396V504Z"/>
</mask>
<path d="M396 504H468V576H396V504Z" fill="#F5F5F5"/>
<path d="M468 576V576.75H468.75V576H468ZM468 504H467.25V576H468H468.75V504H468ZM468 576V575.25H396V576V576.75H468V576Z" fill="#E9EAEB" mask="url(#path-239-inside-119_7_7558)"/>
<mask id="path-241-inside-120_7_7558" fill="white">
<path d="M468 504H540V576H468V504Z"/>
</mask>
<path d="M540 576V576.75H540.75V576H540ZM540 504H539.25V576H540H540.75V504H540ZM540 576V575.25H468V576V576.75H540V576Z" fill="#E9EAEB" mask="url(#path-241-inside-120_7_7558)"/>
<mask id="path-243-inside-121_7_7558" fill="white">
<path d="M540 504H612V576H540V504Z"/>
</mask>
<path d="M612 576V576.75H612.75V576H612ZM612 504H611.25V576H612H612.75V504H612ZM612 576V575.25H540V576V576.75H612V576Z" fill="#E9EAEB" mask="url(#path-243-inside-121_7_7558)"/>
<mask id="path-245-inside-122_7_7558" fill="white">
<path d="M612 504H684V576H612V504Z"/>
</mask>
<path d="M684 576V576.75H684.75V576H684ZM684 504H683.25V576H684H684.75V504H684ZM684 576V575.25H612V576V576.75H684V576Z" fill="#E9EAEB" mask="url(#path-245-inside-122_7_7558)"/>
<mask id="path-247-inside-123_7_7558" fill="white">
<path d="M684 504H756V576H684V504Z"/>
</mask>
<path d="M756 576V576.75H756.75V576H756ZM756 504H755.25V576H756H756.75V504H756ZM756 576V575.25H684V576V576.75H756V576Z" fill="#E9EAEB" mask="url(#path-247-inside-123_7_7558)"/>
<mask id="path-249-inside-124_7_7558" fill="white">
<path d="M756 504H828V576H756V504Z"/>
</mask>
<path d="M828 576V576.75H828.75V576H828ZM828 504H827.25V576H828H828.75V504H828ZM828 576V575.25H756V576V576.75H828V576Z" fill="#E9EAEB" mask="url(#path-249-inside-124_7_7558)"/>
<mask id="path-251-inside-125_7_7558" fill="white">
<path d="M828 504H900V576H828V504Z"/>
</mask>
<path d="M828 504H900V576H828V504Z" fill="#F5F5F5"/>
<path d="M900 576V576.75H900.75V576H900ZM900 504H899.25V576H900H900.75V504H900ZM900 576V575.25H828V576V576.75H900V576Z" fill="#E9EAEB" mask="url(#path-251-inside-125_7_7558)"/>
<mask id="path-253-inside-126_7_7558" fill="white">
<path d="M900 504H972V576H900V504Z"/>
</mask>
<path d="M972 576V576.75H972.75V576H972ZM972 504H971.25V576H972H972.75V504H972ZM972 576V575.25H900V576V576.75H972V576Z" fill="#E9EAEB" mask="url(#path-253-inside-126_7_7558)"/>
<mask id="path-255-inside-127_7_7558" fill="white">
<path d="M972 504H1044V576H972V504Z"/>
</mask>
<path d="M1044 576V576.75H1044.75V576H1044ZM1044 504H1043.25V576H1044H1044.75V504H1044ZM1044 576V575.25H972V576V576.75H1044V576Z" fill="#E9EAEB" mask="url(#path-255-inside-127_7_7558)"/>
<mask id="path-257-inside-128_7_7558" fill="white">
<path d="M1044 504H1116V576H1044V504Z"/>
</mask>
<path d="M1116 576V576.75H1116.75V576H1116ZM1116 504H1115.25V576H1116H1116.75V504H1116ZM1116 576V575.25H1044V576V576.75H1116V576Z" fill="#E9EAEB" mask="url(#path-257-inside-128_7_7558)"/>
<mask id="path-259-inside-129_7_7558" fill="white">
<path d="M-36 576H36V648H-36V576Z"/>
</mask>
<path d="M36 648V648.75H36.75V648H36ZM36 576H35.25V648H36H36.75V576H36ZM36 648V647.25H-36V648V648.75H36V648Z" fill="#E9EAEB" mask="url(#path-259-inside-129_7_7558)"/>
<mask id="path-261-inside-130_7_7558" fill="white">
<path d="M36 576H108V648H36V576Z"/>
</mask>
<path d="M108 648V648.75H108.75V648H108ZM108 576H107.25V648H108H108.75V576H108ZM108 648V647.25H36V648V648.75H108V648Z" fill="#E9EAEB" mask="url(#path-261-inside-130_7_7558)"/>
<mask id="path-263-inside-131_7_7558" fill="white">
<path d="M108 576H180V648H108V576Z"/>
</mask>
<path d="M180 648V648.75H180.75V648H180ZM180 576H179.25V648H180H180.75V576H180ZM180 648V647.25H108V648V648.75H180V648Z" fill="#E9EAEB" mask="url(#path-263-inside-131_7_7558)"/>
<mask id="path-265-inside-132_7_7558" fill="white">
<path d="M180 576H252V648H180V576Z"/>
</mask>
<path d="M180 576H252V648H180V576Z" fill="#F5F5F5"/>
<path d="M252 648V648.75H252.75V648H252ZM252 576H251.25V648H252H252.75V576H252ZM252 648V647.25H180V648V648.75H252V648Z" fill="#E9EAEB" mask="url(#path-265-inside-132_7_7558)"/>
<mask id="path-267-inside-133_7_7558" fill="white">
<path d="M252 576H324V648H252V576Z"/>
</mask>
<path d="M324 648V648.75H324.75V648H324ZM324 576H323.25V648H324H324.75V576H324ZM324 648V647.25H252V648V648.75H324V648Z" fill="#E9EAEB" mask="url(#path-267-inside-133_7_7558)"/>
<mask id="path-269-inside-134_7_7558" fill="white">
<path d="M324 576H396V648H324V576Z"/>
</mask>
<path d="M396 648V648.75H396.75V648H396ZM396 576H395.25V648H396H396.75V576H396ZM396 648V647.25H324V648V648.75H396V648Z" fill="#E9EAEB" mask="url(#path-269-inside-134_7_7558)"/>
<mask id="path-271-inside-135_7_7558" fill="white">
<path d="M396 576H468V648H396V576Z"/>
</mask>
<path d="M468 648V648.75H468.75V648H468ZM468 576H467.25V648H468H468.75V576H468ZM468 648V647.25H396V648V648.75H468V648Z" fill="#E9EAEB" mask="url(#path-271-inside-135_7_7558)"/>
<mask id="path-273-inside-136_7_7558" fill="white">
<path d="M468 576H540V648H468V576Z"/>
</mask>
<path d="M540 648V648.75H540.75V648H540ZM540 576H539.25V648H540H540.75V576H540ZM540 648V647.25H468V648V648.75H540V648Z" fill="#E9EAEB" mask="url(#path-273-inside-136_7_7558)"/>
<mask id="path-275-inside-137_7_7558" fill="white">
<path d="M540 576H612V648H540V576Z"/>
</mask>
<path d="M612 648V648.75H612.75V648H612ZM612 576H611.25V648H612H612.75V576H612ZM612 648V647.25H540V648V648.75H612V648Z" fill="#E9EAEB" mask="url(#path-275-inside-137_7_7558)"/>
<mask id="path-277-inside-138_7_7558" fill="white">
<path d="M612 576H684V648H612V576Z"/>
</mask>
<path d="M612 576H684V648H612V576Z" fill="#F5F5F5"/>
<path d="M684 648V648.75H684.75V648H684ZM684 576H683.25V648H684H684.75V576H684ZM684 648V647.25H612V648V648.75H684V648Z" fill="#E9EAEB" mask="url(#path-277-inside-138_7_7558)"/>
<mask id="path-279-inside-139_7_7558" fill="white">
<path d="M684 576H756V648H684V576Z"/>
</mask>
<path d="M756 648V648.75H756.75V648H756ZM756 576H755.25V648H756H756.75V576H756ZM756 648V647.25H684V648V648.75H756V648Z" fill="#E9EAEB" mask="url(#path-279-inside-139_7_7558)"/>
<mask id="path-281-inside-140_7_7558" fill="white">
<path d="M756 576H828V648H756V576Z"/>
</mask>
<path d="M828 648V648.75H828.75V648H828ZM828 576H827.25V648H828H828.75V576H828ZM828 648V647.25H756V648V648.75H828V648Z" fill="#E9EAEB" mask="url(#path-281-inside-140_7_7558)"/>
<mask id="path-283-inside-141_7_7558" fill="white">
<path d="M828 576H900V648H828V576Z"/>
</mask>
<path d="M900 648V648.75H900.75V648H900ZM900 576H899.25V648H900H900.75V576H900ZM900 648V647.25H828V648V648.75H900V648Z" fill="#E9EAEB" mask="url(#path-283-inside-141_7_7558)"/>
<mask id="path-285-inside-142_7_7558" fill="white">
<path d="M900 576H972V648H900V576Z"/>
</mask>
<path d="M972 648V648.75H972.75V648H972ZM972 576H971.25V648H972H972.75V576H972ZM972 648V647.25H900V648V648.75H972V648Z" fill="#E9EAEB" mask="url(#path-285-inside-142_7_7558)"/>
<mask id="path-287-inside-143_7_7558" fill="white">
<path d="M972 576H1044V648H972V576Z"/>
</mask>
<path d="M1044 648V648.75H1044.75V648H1044ZM1044 576H1043.25V648H1044H1044.75V576H1044ZM1044 648V647.25H972V648V648.75H1044V648Z" fill="#E9EAEB" mask="url(#path-287-inside-143_7_7558)"/>
<mask id="path-289-inside-144_7_7558" fill="white">
<path d="M1044 576H1116V648H1044V576Z"/>
</mask>
<path d="M1116 648V648.75H1116.75V648H1116ZM1116 576H1115.25V648H1116H1116.75V576H1116ZM1116 648V647.25H1044V648V648.75H1116V648Z" fill="#E9EAEB" mask="url(#path-289-inside-144_7_7558)"/>
<mask id="path-291-inside-145_7_7558" fill="white">
<path d="M-36 648H36V720H-36V648Z"/>
</mask>
<path d="M36 720V720.75H36.75V720H36ZM36 648H35.25V720H36H36.75V648H36ZM36 720V719.25H-36V720V720.75H36V720Z" fill="#E9EAEB" mask="url(#path-291-inside-145_7_7558)"/>
<mask id="path-293-inside-146_7_7558" fill="white">
<path d="M36 648H108V720H36V648Z"/>
</mask>
<path d="M108 720V720.75H108.75V720H108ZM108 648H107.25V720H108H108.75V648H108ZM108 720V719.25H36V720V720.75H108V720Z" fill="#E9EAEB" mask="url(#path-293-inside-146_7_7558)"/>
<mask id="path-295-inside-147_7_7558" fill="white">
<path d="M108 648H180V720H108V648Z"/>
</mask>
<path d="M180 720V720.75H180.75V720H180ZM180 648H179.25V720H180H180.75V648H180ZM180 720V719.25H108V720V720.75H180V720Z" fill="#E9EAEB" mask="url(#path-295-inside-147_7_7558)"/>
<mask id="path-297-inside-148_7_7558" fill="white">
<path d="M180 648H252V720H180V648Z"/>
</mask>
<path d="M252 720V720.75H252.75V720H252ZM252 648H251.25V720H252H252.75V648H252ZM252 720V719.25H180V720V720.75H252V720Z" fill="#E9EAEB" mask="url(#path-297-inside-148_7_7558)"/>
<mask id="path-299-inside-149_7_7558" fill="white">
<path d="M252 648H324V720H252V648Z"/>
</mask>
<path d="M324 720V720.75H324.75V720H324ZM324 648H323.25V720H324H324.75V648H324ZM324 720V719.25H252V720V720.75H324V720Z" fill="#E9EAEB" mask="url(#path-299-inside-149_7_7558)"/>
<mask id="path-301-inside-150_7_7558" fill="white">
<path d="M324 648H396V720H324V648Z"/>
</mask>
<path d="M396 720V720.75H396.75V720H396ZM396 648H395.25V720H396H396.75V648H396ZM396 720V719.25H324V720V720.75H396V720Z" fill="#E9EAEB" mask="url(#path-301-inside-150_7_7558)"/>
<mask id="path-303-inside-151_7_7558" fill="white">
<path d="M396 648H468V720H396V648Z"/>
</mask>
<path d="M468 720V720.75H468.75V720H468ZM468 648H467.25V720H468H468.75V648H468ZM468 720V719.25H396V720V720.75H468V720Z" fill="#E9EAEB" mask="url(#path-303-inside-151_7_7558)"/>
<mask id="path-305-inside-152_7_7558" fill="white">
<path d="M468 648H540V720H468V648Z"/>
</mask>
<path d="M540 720V720.75H540.75V720H540ZM540 648H539.25V720H540H540.75V648H540ZM540 720V719.25H468V720V720.75H540V720Z" fill="#E9EAEB" mask="url(#path-305-inside-152_7_7558)"/>
<mask id="path-307-inside-153_7_7558" fill="white">
<path d="M540 648H612V720H540V648Z"/>
</mask>
<path d="M612 720V720.75H612.75V720H612ZM612 648H611.25V720H612H612.75V648H612ZM612 720V719.25H540V720V720.75H612V720Z" fill="#E9EAEB" mask="url(#path-307-inside-153_7_7558)"/>
<mask id="path-309-inside-154_7_7558" fill="white">
<path d="M612 648H684V720H612V648Z"/>
</mask>
<path d="M684 720V720.75H684.75V720H684ZM684 648H683.25V720H684H684.75V648H684ZM684 720V719.25H612V720V720.75H684V720Z" fill="#E9EAEB" mask="url(#path-309-inside-154_7_7558)"/>
<mask id="path-311-inside-155_7_7558" fill="white">
<path d="M684 648H756V720H684V648Z"/>
</mask>
<path d="M756 720V720.75H756.75V720H756ZM756 648H755.25V720H756H756.75V648H756ZM756 720V719.25H684V720V720.75H756V720Z" fill="#E9EAEB" mask="url(#path-311-inside-155_7_7558)"/>
<mask id="path-313-inside-156_7_7558" fill="white">
<path d="M756 648H828V720H756V648Z"/>
</mask>
<path d="M828 720V720.75H828.75V720H828ZM828 648H827.25V720H828H828.75V648H828ZM828 720V719.25H756V720V720.75H828V720Z" fill="#E9EAEB" mask="url(#path-313-inside-156_7_7558)"/>
<mask id="path-315-inside-157_7_7558" fill="white">
<path d="M828 648H900V720H828V648Z"/>
</mask>
<path d="M900 720V720.75H900.75V720H900ZM900 648H899.25V720H900H900.75V648H900ZM900 720V719.25H828V720V720.75H900V720Z" fill="#E9EAEB" mask="url(#path-315-inside-157_7_7558)"/>
<mask id="path-317-inside-158_7_7558" fill="white">
<path d="M900 648H972V720H900V648Z"/>
</mask>
<path d="M972 720V720.75H972.75V720H972ZM972 648H971.25V720H972H972.75V648H972ZM972 720V719.25H900V720V720.75H972V720Z" fill="#E9EAEB" mask="url(#path-317-inside-158_7_7558)"/>
<mask id="path-319-inside-159_7_7558" fill="white">
<path d="M972 648H1044V720H972V648Z"/>
</mask>
<path d="M1044 720V720.75H1044.75V720H1044ZM1044 648H1043.25V720H1044H1044.75V648H1044ZM1044 720V719.25H972V720V720.75H1044V720Z" fill="#E9EAEB" mask="url(#path-319-inside-159_7_7558)"/>
<mask id="path-321-inside-160_7_7558" fill="white">
<path d="M1044 648H1116V720H1044V648Z"/>
</mask>
<path d="M1044 648H1116V720H1044V648Z" fill="#F5F5F5"/>
<path d="M1116 720V720.75H1116.75V720H1116ZM1116 648H1115.25V720H1116H1116.75V648H1116ZM1116 720V719.25H1044V720V720.75H1116V720Z" fill="#E9EAEB" mask="url(#path-321-inside-160_7_7558)"/>
<mask id="path-323-inside-161_7_7558" fill="white">
<path d="M-36 720H36V792H-36V720Z"/>
</mask>
<path d="M36 792V792.75H36.75V792H36ZM36 720H35.25V792H36H36.75V720H36ZM36 792V791.25H-36V792V792.75H36V792Z" fill="#E9EAEB" mask="url(#path-323-inside-161_7_7558)"/>
<mask id="path-325-inside-162_7_7558" fill="white">
<path d="M36 720H108V792H36V720Z"/>
</mask>
<path d="M108 792V792.75H108.75V792H108ZM108 720H107.25V792H108H108.75V720H108ZM108 792V791.25H36V792V792.75H108V792Z" fill="#E9EAEB" mask="url(#path-325-inside-162_7_7558)"/>
<mask id="path-327-inside-163_7_7558" fill="white">
<path d="M108 720H180V792H108V720Z"/>
</mask>
<path d="M180 792V792.75H180.75V792H180ZM180 720H179.25V792H180H180.75V720H180ZM180 792V791.25H108V792V792.75H180V792Z" fill="#E9EAEB" mask="url(#path-327-inside-163_7_7558)"/>
<mask id="path-329-inside-164_7_7558" fill="white">
<path d="M180 720H252V792H180V720Z"/>
</mask>
<path d="M252 792V792.75H252.75V792H252ZM252 720H251.25V792H252H252.75V720H252ZM252 792V791.25H180V792V792.75H252V792Z" fill="#E9EAEB" mask="url(#path-329-inside-164_7_7558)"/>
<mask id="path-331-inside-165_7_7558" fill="white">
<path d="M252 720H324V792H252V720Z"/>
</mask>
<path d="M252 720H324V792H252V720Z" fill="#F5F5F5"/>
<path d="M324 792V792.75H324.75V792H324ZM324 720H323.25V792H324H324.75V720H324ZM324 792V791.25H252V792V792.75H324V792Z" fill="#E9EAEB" mask="url(#path-331-inside-165_7_7558)"/>
<mask id="path-333-inside-166_7_7558" fill="white">
<path d="M324 720H396V792H324V720Z"/>
</mask>
<path d="M396 792V792.75H396.75V792H396ZM396 720H395.25V792H396H396.75V720H396ZM396 792V791.25H324V792V792.75H396V792Z" fill="#E9EAEB" mask="url(#path-333-inside-166_7_7558)"/>
<mask id="path-335-inside-167_7_7558" fill="white">
<path d="M396 720H468V792H396V720Z"/>
</mask>
<path d="M468 792V792.75H468.75V792H468ZM468 720H467.25V792H468H468.75V720H468ZM468 792V791.25H396V792V792.75H468V792Z" fill="#E9EAEB" mask="url(#path-335-inside-167_7_7558)"/>
<mask id="path-337-inside-168_7_7558" fill="white">
<path d="M468 720H540V792H468V720Z"/>
</mask>
<path d="M540 792V792.75H540.75V792H540ZM540 720H539.25V792H540H540.75V720H540ZM540 792V791.25H468V792V792.75H540V792Z" fill="#E9EAEB" mask="url(#path-337-inside-168_7_7558)"/>
<mask id="path-339-inside-169_7_7558" fill="white">
<path d="M540 720H612V792H540V720Z"/>
</mask>
<path d="M540 720H612V792H540V720Z" fill="#F5F5F5"/>
<path d="M612 792V792.75H612.75V792H612ZM612 720H611.25V792H612H612.75V720H612ZM612 792V791.25H540V792V792.75H612V792Z" fill="#E9EAEB" mask="url(#path-339-inside-169_7_7558)"/>
<mask id="path-341-inside-170_7_7558" fill="white">
<path d="M612 720H684V792H612V720Z"/>
</mask>
<path d="M684 792V792.75H684.75V792H684ZM684 720H683.25V792H684H684.75V720H684ZM684 792V791.25H612V792V792.75H684V792Z" fill="#E9EAEB" mask="url(#path-341-inside-170_7_7558)"/>
<mask id="path-343-inside-171_7_7558" fill="white">
<path d="M684 720H756V792H684V720Z"/>
</mask>
<path d="M756 792V792.75H756.75V792H756ZM756 720H755.25V792H756H756.75V720H756ZM756 792V791.25H684V792V792.75H756V792Z" fill="#E9EAEB" mask="url(#path-343-inside-171_7_7558)"/>
<mask id="path-345-inside-172_7_7558" fill="white">
<path d="M756 720H828V792H756V720Z"/>
</mask>
<path d="M828 792V792.75H828.75V792H828ZM828 720H827.25V792H828H828.75V720H828ZM828 792V791.25H756V792V792.75H828V792Z" fill="#E9EAEB" mask="url(#path-345-inside-172_7_7558)"/>
<mask id="path-347-inside-173_7_7558" fill="white">
<path d="M828 720H900V792H828V720Z"/>
</mask>
<path d="M900 792V792.75H900.75V792H900ZM900 720H899.25V792H900H900.75V720H900ZM900 792V791.25H828V792V792.75H900V792Z" fill="#E9EAEB" mask="url(#path-347-inside-173_7_7558)"/>
<mask id="path-349-inside-174_7_7558" fill="white">
<path d="M900 720H972V792H900V720Z"/>
</mask>
<path d="M972 792V792.75H972.75V792H972ZM972 720H971.25V792H972H972.75V720H972ZM972 792V791.25H900V792V792.75H972V792Z" fill="#E9EAEB" mask="url(#path-349-inside-174_7_7558)"/>
<mask id="path-351-inside-175_7_7558" fill="white">
<path d="M972 720H1044V792H972V720Z"/>
</mask>
<path d="M1044 792V792.75H1044.75V792H1044ZM1044 720H1043.25V792H1044H1044.75V720H1044ZM1044 792V791.25H972V792V792.75H1044V792Z" fill="#E9EAEB" mask="url(#path-351-inside-175_7_7558)"/>
<mask id="path-353-inside-176_7_7558" fill="white">
<path d="M1044 720H1116V792H1044V720Z"/>
</mask>
<path d="M1116 792V792.75H1116.75V792H1116ZM1116 720H1115.25V792H1116H1116.75V720H1116ZM1116 792V791.25H1044V792V792.75H1116V792Z" fill="#E9EAEB" mask="url(#path-353-inside-176_7_7558)"/>
<mask id="path-355-inside-177_7_7558" fill="white">
<path d="M-36 792H36V864H-36V792Z"/>
</mask>
<path d="M-36 792H36V864H-36V792Z" fill="#F5F5F5"/>
<path d="M36 864V864.75H36.75V864H36ZM36 792H35.25V864H36H36.75V792H36ZM36 864V863.25H-36V864V864.75H36V864Z" fill="#E9EAEB" mask="url(#path-355-inside-177_7_7558)"/>
<mask id="path-357-inside-178_7_7558" fill="white">
<path d="M36 792H108V864H36V792Z"/>
</mask>
<path d="M108 864V864.75H108.75V864H108ZM108 792H107.25V864H108H108.75V792H108ZM108 864V863.25H36V864V864.75H108V864Z" fill="#E9EAEB" mask="url(#path-357-inside-178_7_7558)"/>
<mask id="path-359-inside-179_7_7558" fill="white">
<path d="M108 792H180V864H108V792Z"/>
</mask>
<path d="M180 864V864.75H180.75V864H180ZM180 792H179.25V864H180H180.75V792H180ZM180 864V863.25H108V864V864.75H180V864Z" fill="#E9EAEB" mask="url(#path-359-inside-179_7_7558)"/>
<mask id="path-361-inside-180_7_7558" fill="white">
<path d="M180 792H252V864H180V792Z"/>
</mask>
<path d="M252 864V864.75H252.75V864H252ZM252 792H251.25V864H252H252.75V792H252ZM252 864V863.25H180V864V864.75H252V864Z" fill="#E9EAEB" mask="url(#path-361-inside-180_7_7558)"/>
<mask id="path-363-inside-181_7_7558" fill="white">
<path d="M252 792H324V864H252V792Z"/>
</mask>
<path d="M324 864V864.75H324.75V864H324ZM324 792H323.25V864H324H324.75V792H324ZM324 864V863.25H252V864V864.75H324V864Z" fill="#E9EAEB" mask="url(#path-363-inside-181_7_7558)"/>
<mask id="path-365-inside-182_7_7558" fill="white">
<path d="M324 792H396V864H324V792Z"/>
</mask>
<path d="M396 864V864.75H396.75V864H396ZM396 792H395.25V864H396H396.75V792H396ZM396 864V863.25H324V864V864.75H396V864Z" fill="#E9EAEB" mask="url(#path-365-inside-182_7_7558)"/>
<mask id="path-367-inside-183_7_7558" fill="white">
<path d="M396 792H468V864H396V792Z"/>
</mask>
<path d="M468 864V864.75H468.75V864H468ZM468 792H467.25V864H468H468.75V792H468ZM468 864V863.25H396V864V864.75H468V864Z" fill="#E9EAEB" mask="url(#path-367-inside-183_7_7558)"/>
<mask id="path-369-inside-184_7_7558" fill="white">
<path d="M468 792H540V864H468V792Z"/>
</mask>
<path d="M540 864V864.75H540.75V864H540ZM540 792H539.25V864H540H540.75V792H540ZM540 864V863.25H468V864V864.75H540V864Z" fill="#E9EAEB" mask="url(#path-369-inside-184_7_7558)"/>
<mask id="path-371-inside-185_7_7558" fill="white">
<path d="M540 792H612V864H540V792Z"/>
</mask>
<path d="M612 864V864.75H612.75V864H612ZM612 792H611.25V864H612H612.75V792H612ZM612 864V863.25H540V864V864.75H612V864Z" fill="#E9EAEB" mask="url(#path-371-inside-185_7_7558)"/>
<mask id="path-373-inside-186_7_7558" fill="white">
<path d="M612 792H684V864H612V792Z"/>
</mask>
<path d="M684 864V864.75H684.75V864H684ZM684 792H683.25V864H684H684.75V792H684ZM684 864V863.25H612V864V864.75H684V864Z" fill="#E9EAEB" mask="url(#path-373-inside-186_7_7558)"/>
<mask id="path-375-inside-187_7_7558" fill="white">
<path d="M684 792H756V864H684V792Z"/>
</mask>
<path d="M756 864V864.75H756.75V864H756ZM756 792H755.25V864H756H756.75V792H756ZM756 864V863.25H684V864V864.75H756V864Z" fill="#E9EAEB" mask="url(#path-375-inside-187_7_7558)"/>
<mask id="path-377-inside-188_7_7558" fill="white">
<path d="M756 792H828V864H756V792Z"/>
</mask>
<path d="M828 864V864.75H828.75V864H828ZM828 792H827.25V864H828H828.75V792H828ZM828 864V863.25H756V864V864.75H828V864Z" fill="#E9EAEB" mask="url(#path-377-inside-188_7_7558)"/>
<mask id="path-379-inside-189_7_7558" fill="white">
<path d="M828 792H900V864H828V792Z"/>
</mask>
<path d="M828 792H900V864H828V792Z" fill="#F5F5F5"/>
<path d="M900 864V864.75H900.75V864H900ZM900 792H899.25V864H900H900.75V792H900ZM900 864V863.25H828V864V864.75H900V864Z" fill="#E9EAEB" mask="url(#path-379-inside-189_7_7558)"/>
<mask id="path-381-inside-190_7_7558" fill="white">
<path d="M900 792H972V864H900V792Z"/>
</mask>
<path d="M972 864V864.75H972.75V864H972ZM972 792H971.25V864H972H972.75V792H972ZM972 864V863.25H900V864V864.75H972V864Z" fill="#E9EAEB" mask="url(#path-381-inside-190_7_7558)"/>
<mask id="path-383-inside-191_7_7558" fill="white">
<path d="M972 792H1044V864H972V792Z"/>
</mask>
<path d="M1044 864V864.75H1044.75V864H1044ZM1044 792H1043.25V864H1044H1044.75V792H1044ZM1044 864V863.25H972V864V864.75H1044V864Z" fill="#E9EAEB" mask="url(#path-383-inside-191_7_7558)"/>
<mask id="path-385-inside-192_7_7558" fill="white">
<path d="M1044 792H1116V864H1044V792Z"/>
</mask>
<path d="M1116 864V864.75H1116.75V864H1116ZM1116 792H1115.25V864H1116H1116.75V792H1116ZM1116 864V863.25H1044V864V864.75H1116V864Z" fill="#E9EAEB" mask="url(#path-385-inside-192_7_7558)"/>
</g>
<rect x="-179.625" y="0.375" width="1439.25" height="1079.25" stroke="#E9EAEB" stroke-width="0.75"/>
<defs>
<clipPath id="clip0_7_7558">
<rect x="-180" width="1440" height="1080" fill="white"/>
</clipPath>
</defs>
</svg>
