<svg width="24" height="25" viewBox="0 0 24 25" fill="none" xmlns="http://www.w3.org/2000/svg">
<path d="M7.5 12.2905H7.51M12 12.2905H12.01M16.5 12.2905H16.51M12 21.2905C16.9706 21.2905 21 17.2611 21 12.2905C21 7.31996 16.9706 3.29053 12 3.29053C7.02944 3.29053 3 7.31996 3 12.2905C3 13.4877 3.23374 14.6302 3.65806 15.675C3.73927 15.875 3.77988 15.975 3.798 16.0558C3.81572 16.1349 3.8222 16.1934 3.82221 16.2744C3.82222 16.3572 3.80718 16.4474 3.77711 16.6279L3.18413 20.1858C3.12203 20.5583 3.09098 20.7446 3.14876 20.8793C3.19933 20.9972 3.29328 21.0912 3.41118 21.1418C3.54589 21.1995 3.73218 21.1685 4.10476 21.1064L7.66265 20.5134C7.84309 20.4833 7.9333 20.4683 8.01613 20.4683C8.09715 20.4683 8.15566 20.4748 8.23472 20.4925C8.31554 20.5106 8.41552 20.5513 8.61549 20.6325C9.6603 21.0568 10.8029 21.2905 12 21.2905ZM8 12.2905C8 12.5667 7.77614 12.7905 7.5 12.7905C7.22386 12.7905 7 12.5667 7 12.2905C7 12.0144 7.22386 11.7905 7.5 11.7905C7.77614 11.7905 8 12.0144 8 12.2905ZM12.5 12.2905C12.5 12.5667 12.2761 12.7905 12 12.7905C11.7239 12.7905 11.5 12.5667 11.5 12.2905C11.5 12.0144 11.7239 11.7905 12 11.7905C12.2761 11.7905 12.5 12.0144 12.5 12.2905ZM17 12.2905C17 12.5667 16.7761 12.7905 16.5 12.7905C16.2239 12.7905 16 12.5667 16 12.2905C16 12.0144 16.2239 11.7905 16.5 11.7905C16.7761 11.7905 17 12.0144 17 12.2905Z" stroke="#FF7A00" stroke-width="2" stroke-linecap="round" stroke-linejoin="round"/>
</svg>
