<svg width="24" height="25" viewBox="0 0 24 25" fill="none" xmlns="http://www.w3.org/2000/svg">
<path d="M18 13.2905L16.7004 6.79235C16.6278 6.42935 16.5915 6.24786 16.5032 6.10005C16.4252 5.96938 16.3183 5.85825 16.1908 5.77512C16.0466 5.68109 15.8667 5.63766 15.5069 5.5508L2 2.29053M2 2.29053L5.26028 15.7974C5.34714 16.1572 5.39057 16.3372 5.4846 16.4814C5.56773 16.6089 5.67886 16.7157 5.80953 16.7937C5.95733 16.882 6.13883 16.9183 6.50182 16.9909L13 18.2905M2 2.29053L9.586 9.87653M16.1314 21.1592L20.8686 16.4219C21.2646 16.0259 21.4627 15.8279 21.5368 15.5995C21.6021 15.3987 21.6021 15.1824 21.5368 14.9815C21.4627 14.7532 21.2646 14.5552 20.8686 14.1592L20.1314 13.4219C19.7354 13.0259 19.5373 12.8279 19.309 12.7537C19.1082 12.6884 18.8918 12.6884 18.691 12.7537C18.4627 12.8279 18.2646 13.0259 17.8686 13.4219L13.1314 18.1592C12.7354 18.5552 12.5373 18.7532 12.4632 18.9815C12.3979 19.1824 12.3979 19.3987 12.4632 19.5995C12.5373 19.8279 12.7354 20.0259 13.1314 20.4219L13.8686 21.1592C14.2646 21.5552 14.4627 21.7532 14.691 21.8274C14.8918 21.8926 15.1082 21.8926 15.309 21.8274C15.5373 21.7532 15.7354 21.5552 16.1314 21.1592ZM13 11.2905C13 12.3951 12.1046 13.2905 11 13.2905C9.89543 13.2905 9 12.3951 9 11.2905C9 10.186 9.89543 9.29053 11 9.29053C12.1046 9.29053 13 10.186 13 11.2905Z" stroke="#FF7A00" stroke-width="2" stroke-linecap="round" stroke-linejoin="round"/>
</svg>
