<svg width="48" height="48" viewBox="0 0 48 48" fill="none" xmlns="http://www.w3.org/2000/svg">
<path d="M39.4283 13.9998L36.5712 33.9998M12.2858 14L8.71436 34M36.0001 10L16.0001 10M32.0001 38L12.0001 38" stroke="#181D27" stroke-width="3" stroke-linecap="round" stroke-linejoin="round"/>
<path d="M8 9.2C8 8.07989 8 7.51984 8.21799 7.09202C8.40973 6.71569 8.71569 6.40973 9.09202 6.21799C9.51984 6 10.0799 6 11.2 6H12.8C13.9201 6 14.4802 6 14.908 6.21799C15.2843 6.40973 15.5903 6.71569 15.782 7.09202C16 7.51984 16 8.0799 16 9.2V10.8C16 11.9201 16 12.4802 15.782 12.908C15.5903 13.2843 15.2843 13.5903 14.908 13.782C14.4802 14 13.9201 14 12.8 14H11.2C10.0799 14 9.51984 14 9.09202 13.782C8.71569 13.5903 8.40973 13.2843 8.21799 12.908C8 12.4802 8 11.9201 8 10.8V9.2Z" stroke="#FF7A00" stroke-width="3" stroke-linecap="round" stroke-linejoin="round"/>
<path d="M4 37.2C4 36.0799 4 35.5198 4.21799 35.092C4.40973 34.7157 4.71569 34.4097 5.09202 34.218C5.51984 34 6.0799 34 7.2 34H8.8C9.92011 34 10.4802 34 10.908 34.218C11.2843 34.4097 11.5903 34.7157 11.782 35.092C12 35.5198 12 36.0799 12 37.2V38.8C12 39.9201 12 40.4802 11.782 40.908C11.5903 41.2843 11.2843 41.5903 10.908 41.782C10.4802 42 9.92011 42 8.8 42H7.2C6.07989 42 5.51984 42 5.09202 41.782C4.71569 41.5903 4.40973 41.2843 4.21799 40.908C4 40.4802 4 39.9201 4 38.8V37.2Z" stroke="#FF7A00" stroke-width="3" stroke-linecap="round" stroke-linejoin="round"/>
<path d="M36 9.2C36 8.07989 36 7.51984 36.218 7.09202C36.4097 6.71569 36.7157 6.40973 37.092 6.21799C37.5198 6 38.0799 6 39.2 6H40.8C41.9201 6 42.4802 6 42.908 6.21799C43.2843 6.40973 43.5903 6.71569 43.782 7.09202C44 7.51984 44 8.0799 44 9.2V10.8C44 11.9201 44 12.4802 43.782 12.908C43.5903 13.2843 43.2843 13.5903 42.908 13.782C42.4802 14 41.9201 14 40.8 14H39.2C38.0799 14 37.5198 14 37.092 13.782C36.7157 13.5903 36.4097 13.2843 36.218 12.908C36 12.4802 36 11.9201 36 10.8V9.2Z" stroke="#FF7A00" stroke-width="3" stroke-linecap="round" stroke-linejoin="round"/>
<path d="M32 37.2C32 36.0799 32 35.5198 32.218 35.092C32.4097 34.7157 32.7157 34.4097 33.092 34.218C33.5198 34 34.0799 34 35.2 34H36.8C37.9201 34 38.4802 34 38.908 34.218C39.2843 34.4097 39.5903 34.7157 39.782 35.092C40 35.5198 40 36.0799 40 37.2V38.8C40 39.9201 40 40.4802 39.782 40.908C39.5903 41.2843 39.2843 41.5903 38.908 41.782C38.4802 42 37.9201 42 36.8 42H35.2C34.0799 42 33.5198 42 33.092 41.782C32.7157 41.5903 32.4097 41.2843 32.218 40.908C32 40.4802 32 39.9201 32 38.8V37.2Z" stroke="#FF7A00" stroke-width="3" stroke-linecap="round" stroke-linejoin="round"/>
</svg>
